<svg xmlns="http://www.w3.org/2000/svg" xmlns:xlink="http://www.w3.org/1999/xlink" version="1.1" x="0px" y="0px" viewBox="0 0 100 125" style="enable-background:new 0 0 100 100;" xml:space="preserve"><style type="text/css">
	.st0{fill:#010101;}
</style><g><path class="st0" d="M68.3,37.8L49.7,56.4L32.1,38.8c-0.8-0.8-2-0.8-2.8,0c-0.8,0.8-0.8,2,0,2.8l20.4,20.4l21.5-21.4   c0.8-0.8,0.8-2,0-2.8C70.3,37,69.1,37,68.3,37.8z"/><path class="st0" d="M50.2,2.2c-25.9,0-47,21.1-47,47c0,25.9,21.1,47,47,47c25.9,0,47-21.1,47-47C97.2,23.3,76.1,2.2,50.2,2.2z    M50.2,92.2c-23.7,0-43-19.3-43-43c0-23.7,19.3-43,43-43s43,19.3,43,43C93.2,72.9,73.9,92.2,50.2,92.2z"/></g></svg>