<svg fill="black" xmlns="http://www.w3.org/2000/svg" xmlns:xlink="http://www.w3.org/1999/xlink" version="1.1" x="0px" y="0px" viewBox="0.5 0.5 100 125" enable-background="new 0.5 0.5 100 100" xml:space="preserve"><path d="M63.512,31.339c-0.505-0.216-1.096,0.014-1.315,0.521c-0.219,0.507,0.014,1.095,0.521,1.315  c11.235,4.862,18.494,15.912,18.494,28.152c0,14.259-9.784,26.275-22.99,29.689c-0.783-7.177-1.651-16.976-1.715-25.516H59.5  c1.654,0,3-1.346,3-3c0-1.079-0.577-2.018-1.434-2.547l1.266-1.899c0.024-0.036,0.037-0.077,0.056-0.116  c0.014-0.028,0.029-0.053,0.04-0.082c0.042-0.109,0.066-0.222,0.068-0.337c0-0.007,0.004-0.012,0.004-0.019v-1v-1  c-0.001-0.117-0.026-0.236-0.067-0.347c-0.011-0.029-0.023-0.056-0.036-0.083c-0.013-0.028-0.02-0.058-0.036-0.084l-0.386-0.644  l0.002,0.009L59.5,50.223V47.5c0-0.552-0.447-1-1-1h-4v-3c0-0.552-0.447-1-1-1V30.695c0.822-0.645,1-1.546,1-2.195  c0-0.856-0.308-2.151-2-2.717V18.5c0-0.552-0.447-1-1-1v-9c0-0.552-0.448-1-1-1s-1,0.448-1,1v9c-0.552,0-1,0.448-1,1v7.283  c-1.692,0.566-2,1.861-2,2.717c0,0.649,0.178,1.55,1,2.195V42.5c-0.552,0-1,0.448-1,1v3h-4c-0.552,0-1,0.448-1,1v2.723l-2.857,4.762  c-0.016,0.027-0.023,0.057-0.036,0.084c-0.013,0.028-0.025,0.054-0.036,0.083c-0.041,0.111-0.068,0.225-0.069,0.342  C38.501,55.497,38.5,55.498,38.5,55.5v2c0,0.007,0.004,0.012,0.004,0.018c0.002,0.116,0.026,0.229,0.068,0.339  c0.011,0.028,0.026,0.053,0.039,0.08c0.019,0.039,0.032,0.08,0.057,0.117l1.266,1.899C39.077,60.482,38.5,61.421,38.5,62.5  c0,1.654,1.346,3,3,3h2.994c-0.062,8.545-0.893,18.341-1.641,25.508c-13.192-3.424-22.962-15.432-22.962-29.68  c0-12.228,7.25-23.274,18.469-28.141c0.507-0.22,0.739-0.809,0.52-1.315c-0.219-0.507-0.81-0.739-1.315-0.52  c-11.951,5.185-19.673,16.951-19.673,29.976c0,18.009,14.651,32.66,32.66,32.66c18.008,0,32.66-14.651,32.66-32.66  C83.211,48.29,75.479,36.519,63.512,31.339z M50.5,27.5c2,0,2,0.626,2,1s0,1-2,1s-2-0.626-2-1S48.5,27.5,50.5,27.5z M51.5,31.436  V43.5v3h-2v-3V31.436c0.305,0.039,0.632,0.064,1,0.064S51.195,31.475,51.5,31.436z M43.5,48.5h5h4h5v1h-14V48.5z M43.066,51.5  h14.867l1.8,3H41.266L43.066,51.5z M59.632,58.5l-0.667,1h-2.078l0.333-1H59.632z M55.113,58.5l-0.333,1H51.5v-1H55.113z M49.5,58.5  v1h-3.279l-0.333-1H49.5z M44.112,59.5h-2.077l-0.667-1h2.41L44.112,59.5z M41.5,63.5c-0.551,0-1-0.448-1-1s0.449-1,1-1h18  c0.552,0,1,0.448,1,1s-0.448,1-1,1h-4h-10H41.5z M56.255,91.447c-1.548,0.292-3.136,0.467-4.755,0.516V65.5h3.004  C54.569,74.212,55.462,84.2,56.255,91.447z M46.497,65.5H49.5v26.461c-1.594-0.054-3.158-0.229-4.682-0.519  C45.577,84.207,46.434,74.219,46.497,65.5z"/></svg>