<svg fill="#black" xmlns="http://www.w3.org/2000/svg" data-name="Layer 2" viewBox="0 0 72 108.75" x="0px" y="0px"><title>Starbucks</title><style>fill: pink;</style><path d="M550.87,573.5H509.13l-10-70H494v-7h72v7h-2v-5H496v3h3.93l0.92-.13,0,0.13h60.29Zm-40-2h38.27l9.71-68H501.15Z" transform="translate(-494 -486.5)"/><rect x="65" y="15" width="7" height="2"/><polygon points="70.11 11.45 65.38 2 6.62 2 1.9 11.45 0.1 10.55 5.38 0 66.62 0 71.89 10.55 70.11 11.45"/><path d="M530,551a21,21,0,1,1,21-21A21,21,0,0,1,530,551Zm0-40a19,19,0,1,0,19,19A19,19,0,0,0,530,511Z" transform="translate(-494 -486.5)"/></svg>