<svg fill="black" xmlns="http://www.w3.org/2000/svg" xmlns:xlink="http://www.w3.org/1999/xlink" version="1.1" x="0px" y="0px" viewBox="0 0 150 187.5" enable-background="new 0 0 150 150" xml:space="preserve"><g><path d="M103.125,51.562h-4.688c0-2.591-2.097-4.688-4.688-4.688h-4.688c-2.591,0-4.688,2.097-4.688,4.688v2.106l-7.046,9.612   H53.906c-1.512,0-4.688-5.241-4.688-11.719h-2.344c0,5.506,2.292,10.95,3.909,12.464c-1.017,2.064-1.566,8.057-1.566,13.318h-0.001   v2.344h0.002c0,6.477-2.729,9.373-4.24,9.373l0.001,0.002h-0.448v11.717v2.344v0.002h2.344v-0.002h2.344v0.002h2.344v-0.002v-2.344   v-7.434c4.359-1.432,8.749-6.475,10.688-11.316h12.217l2.877,21.096h2.344v-0.002h1.172v0.002h2.344v-0.002v-2.344V86.932   c2.73-2.199,4.688-7.699,4.688-10.762c0-0.488-0.148-0.94-0.402-1.315l5.262-11.574h5.687c3.887,0,7.032-5.488,7.032-9.375   C105.469,52.61,104.421,51.562,103.125,51.562z M98.437,60.937h-7.03v0.002l-0.002-0.002l-5.857,12.889v2.344   c0,2.59-2.097,9.375-4.688,9.375v2.344v12.891h-1.491l-3.196-23.436h-2.344l0.319,2.342H62.991c0.187-0.812,0.29-1.602,0.29-2.344   l-2.345,0.002c0,5.182-6.537,14.062-11.719,14.062l-0.001,2.344c0.001,0,0.002,0,0.002,0v7.029h-2.344v-9.477   c1.657-0.73,4.688-5.643,4.688-11.615h-0.001v-2.344c0-4.811,0.46-9.581,1.316-11.719h24.168h1.436l0.51-0.695l6.825-9.309   l0.902-1.23v-0.84v-1.988c0-1.295,1.048-2.344,2.344-2.344h4.688c1.295,0,2.344,1.048,2.344,2.344v2.344h2.343h0.001h4.688   C103.125,56.497,101.027,60.937,98.437,60.937z"/><path d="M90.234,56.25h-2.344v2.344h2.344c1.295,0,2.344-1.048,2.344-2.344v-4.688h-2.344V56.25z"/></g></svg>
