<svg fill="black" xmlns="http://www.w3.org/2000/svg" data-name="Layer 1" viewBox="0 0 100 125" x="0px" y="0px"><defs><style>.cls-1{stroke:#000;stroke-miterlimit:10;stroke-width:0.01px;}</style></defs><title>collections_09</title><path class="cls-1" d="M85.36,43.1a2,2,0,0,0-1.82-1.17H55.87l5.7-34.73a2,2,0,0,0-3.48-1.64L15,54.76a2,2,0,0,0,1.5,3.32H44.13l-5.7,34.73a2,2,0,0,0,3.48,1.64L85,45.24A2,2,0,0,0,85.36,43.1ZM43.51,86.55,48.46,56.4a2,2,0,0,0-2-2.33H20.88L56.49,13.45,51.54,43.6a2,2,0,0,0,2,2.32H79.12Z"/></svg>