<svg fill="#black" xmlns="http://www.w3.org/2000/svg" xmlns:xlink="http://www.w3.org/1999/xlink" version="1.1" x="0px" y="0px" viewBox="0 0 100 125" style="enable-background:new 0 0 100 100;" xml:space="preserve"><path d="M55.5,68.4c0,3.1-2.5,5.6-5.5,5.6s-5.5-2.5-5.5-5.6c0-3.1,2.5-5.6,5.5-5.6S55.5,65.4,55.5,68.4z M79.6,38.4  C79.6,38.4,79.6,38.4,79.6,38.4C71.7,30.4,61.2,26,50,26s-21.7,4.4-29.6,12.4c0,0,0,0,0,0c-0.5,0.5-0.5,1.4,0,2L23,43  c0.5,0.6,1.4,0.5,2,0c6.4-6.5,15.3-10.5,25.1-10.5c9.8,0,18.6,4,25.1,10.5c0.5,0.6,1.4,0.6,2,0l2.6-2.6C80.1,39.9,80.1,39,79.6,38.4  z M70.7,47.5c-5.5-5.6-12.9-8.7-20.7-8.7s-15.1,3.1-20.7,8.7c0,0,0,0,0,0c-0.5,0.5-0.5,1.4,0,2l2.6,2.6c0.5,0.6,1.4,0.5,2,0  c4.1-4.2,9.8-6.8,16.1-6.8s12,2.6,16.1,6.8c0.5,0.6,1.4,0.6,2,0l2.6-2.6C71.2,48.9,71.2,48,70.7,47.5C70.7,47.5,70.7,47.5,70.7,47.5  z M50,51.6c-4.6,0-8.7,1.9-11.7,4.9c-0.5,0.6-0.5,1.4,0,2l2.5,2.6c0.5,0.6,1.4,0.5,2,0c1.8-1.9,4.4-3,7.2-3c2.8,0,5.3,1.2,7.2,3  c0.5,0.6,1.4,0.6,2,0l2.5-2.6c0.5-0.6,0.5-1.4,0-2C58.7,53.5,54.6,51.6,50,51.6z"/></svg>